HIERARCHY
ROOT Hips
{
	OFFSET -0.001795 -0.223333 0.028219
	CHANNELS 6 Xposition Yposition Zposition Zrotation Yrotation Xrotation 
	JOINT LeftUpLeg
	{
		OFFSET 0.069520 -0.091406 -0.006815
		CHANNELS 3 Zrotation Yrotation Xrotation
		JOINT LeftLeg
		{
			OFFSET 0.034277 -0.375199 -0.004496
			CHANNELS 3 Zrotation Yrotation Xrotation
			JOINT LeftFoot
			{
				OFFSET -0.013596 -0.397961 -0.043693
				CHANNELS 3 Zrotation Yrotation Xrotation
				JOINT LeftToe
				{
					OFFSET 0.026358 -0.055791 0.119288
					CHANNELS 3 Zrotation Yrotation Xrotation
					End Site
					{
						OFFSET 0.000000 0.000000 0.000000
					}
				}
			}
		}
	}
	JOINT RightUpLeg
	{
		OFFSET -0.067670 -0.090522 -0.004320
		CHANNELS 3 Zrotation Yrotation Xrotation
		JOINT RightLeg
		{
			OFFSET -0.038290 -0.382569 -0.008850
			CHANNELS 3 Zrotation Yrotation Xrotation
			JOINT RightFoot
			{
				OFFSET 0.015774 -0.398415 -0.042312
				CHANNELS 3 Zrotation Yrotation Xrotation
				JOINT RightToe
				{
					OFFSET -0.025372 -0.048144 0.123348
					CHANNELS 3 Zrotation Yrotation Xrotation
					End Site
					{
						OFFSET 0.000000 0.000000 0.000000
					}
				}
			}
		}
	}
	JOINT Spine
	{
		OFFSET -0.002533 0.108963 -0.026696
		CHANNELS 3 Zrotation Yrotation Xrotation
		JOINT Spine1
		{
			OFFSET 0.005487 0.135180 0.001092
			CHANNELS 3 Zrotation Yrotation Xrotation
			JOINT Spine2
			{
				OFFSET 0.001457 0.052922 0.025425
				CHANNELS 3 Zrotation Yrotation Xrotation
				JOINT Neck
				{
					OFFSET -0.002778 0.213870 -0.042857
					CHANNELS 3 Zrotation Yrotation Xrotation
					JOINT Head
					{
						OFFSET 0.005152 0.064970 0.051349
						CHANNELS 3 Zrotation Yrotation Xrotation
						End Site
						{
							OFFSET 0.000000 0.000000 0.000000
						}
					}
				}
				JOINT LeftShoulder
				{
					OFFSET 0.078845 0.121749 -0.034090
					CHANNELS 3 Zrotation Yrotation Xrotation
					JOINT LeftArm
					{
						OFFSET 0.090977 0.030469 -0.008868
						CHANNELS 3 Zrotation Yrotation Xrotation
						JOINT LeftForeArm
						{
							OFFSET 0.259612 -0.012772 -0.027456
							CHANNELS 3 Zrotation Yrotation Xrotation
							JOINT LeftHand
							{
								OFFSET 0.249234 0.008986 -0.001171
								CHANNELS 3 Zrotation Yrotation Xrotation
								End Site
								{
									OFFSET 0.000000 0.000000 0.000000
								}
							}
						}
					}
				}
				JOINT RightShoulder
				{
					OFFSET -0.081759 0.118833 -0.038615
					CHANNELS 3 Zrotation Yrotation Xrotation
					JOINT RightArm
					{
						OFFSET -0.096012 0.032551 -0.009143
						CHANNELS 3 Zrotation Yrotation Xrotation
						JOINT RightForeArm
						{
							OFFSET -0.253742 -0.013329 -0.021401
							CHANNELS 3 Zrotation Yrotation Xrotation
							JOINT RightHand
							{
								OFFSET -0.255298 0.007772 -0.005559
								CHANNELS 3 Zrotation Yrotation Xrotation
								End Site
								{
									OFFSET 0.000000 0.000000 0.000000
								}
							}
						}
					}
				}
			}
		}
	}
}
MOTION
Frames: 13
Frame Time: 0.050000
0.753131 0.889196 0.584237 -177.510083 55.839336 -170.956615 9.741180 -14.941371 -37.284155 -18.398263 -9.896089 25.222011 46.445680 16.531645 52.270081 0.000000 0.000000 0.000000 7.999097 -13.263487 -33.125338 -38.535891 -19.094659 59.552235 8.239878 11.543104 -8.893246 0.000000 0.000000 0.000000 -30.533125 -19.683907 51.368746 -4.021248 -1.597159 -33.269109 13.217090 41.307939 33.166466 11.465041 9.759650 -47.218562 0.000000 0.000000 0.000000 -5.410726 -11.854897 -23.531945 -36.963082 37.065206 -17.246572 -65.379692 -15.998899 0.142412 0.000000 0.000000 0.000000 31.442696 -11.389501 32.587847 38.930419 17.989267 -8.376904 49.165053 35.745676 16.736220 0.000000 0.000000 0.000000 
0.757617 0.888372 0.587553 -177.760723 53.679284 -171.626892 9.680268 -14.451945 -36.275621 -18.835915 -10.158793 24.324631 46.597790 14.590330 50.274661 0.000000 0.000000 0.000000 8.302714 -13.181874 -32.678572 -32.772950 -18.934447 52.771351 9.225616 10.686172 -8.304261 0.000000 0.000000 0.000000 -30.731242 -20.238279 51.748233 -3.986445 -1.206385 -32.270145 12.600792 41.199484 32.202766 11.113590 9.860508 -45.007010 0.000000 0.000000 0.000000 -4.494844 -11.141200 -23.326742 -37.652525 37.314980 -18.245142 -67.233979 -15.302424 -0.661164 0.000000 0.000000 0.000000 30.014979 -10.901972 32.297922 39.414825 17.702444 -7.794035 51.644385 35.738726 18.109921 0.000000 0.000000 0.000000 
0.763044 0.886250 0.591068 -178.043352 51.518639 -172.307473 9.338246 -13.863572 -35.105412 -18.753008 -10.353195 23.388568 47.237924 12.490755 47.740569 0.000000 0.000000 0.000000 8.364327 -13.347912 -32.313419 -29.664593 -17.931489 47.566119 13.533462 14.271813 -6.895064 0.000000 0.000000 0.000000 -29.238923 -20.654739 51.375337 -4.169325 -1.277480 -32.082754 12.007107 40.351290 32.387505 11.557946 9.771004 -45.159361 0.000000 0.000000 0.000000 -4.875769 -11.575739 -25.083981 -34.965864 38.924899 -17.170833 -69.698709 -13.771399 -1.153323 0.000000 0.000000 0.000000 29.855515 -11.347899 33.005662 37.966836 17.701946 -7.691614 53.323790 37.320320 19.545384 0.000000 0.000000 0.000000 
0.768596 0.884575 0.596116 -178.332627 49.717577 -173.062066 9.872586 -13.233143 -33.979568 -20.077875 -10.803074 22.122717 47.999963 10.598397 46.434676 0.000000 0.000000 0.000000 8.511129 -13.335547 -32.001061 -28.856331 -17.272589 44.978939 24.576858 23.947296 -4.735292 0.000000 0.000000 0.000000 -28.861932 -20.741483 50.886576 -3.380843 -0.930615 -31.610466 11.692074 39.990433 32.139082 12.047583 9.803206 -44.713256 0.000000 0.000000 0.000000 -4.599465 -11.538290 -26.163722 -33.588108 40.074698 -16.918096 -71.987843 -12.116698 -2.281821 0.000000 0.000000 0.000000 29.592383 -11.685140 33.681044 36.886130 17.818917 -7.573260 54.422874 37.529393 19.837070 0.000000 0.000000 0.000000 
0.773819 0.883342 0.603076 -178.562200 47.182471 -173.685243 10.789509 -13.154759 -33.431870 -21.809211 -11.629663 21.117937 48.381954 8.187887 45.884879 0.000000 0.000000 0.000000 8.482848 -13.039452 -30.996843 -27.851297 -17.213047 42.665505 31.007146 26.771064 -2.016112 0.000000 0.000000 0.000000 -29.518836 -21.471435 51.439514 -3.448787 -0.756988 -30.845136 12.504267 39.953281 32.016391 12.369070 9.716313 -45.346293 0.000000 0.000000 0.000000 -4.483134 -11.694969 -27.724308 -32.287322 40.946483 -16.488499 -73.729808 -10.535015 -3.250186 0.000000 0.000000 0.000000 27.796236 -11.697108 33.164321 37.595116 17.771624 -6.845333 55.208935 36.766653 20.451867 0.000000 0.000000 0.000000 
0.777981 0.882330 0.612093 -178.665999 44.928966 -174.015650 12.830395 -13.800346 -33.874429 -24.893116 -12.951558 20.455199 48.289933 6.871325 47.473238 0.000000 0.000000 0.000000 8.299701 -12.694357 -29.941804 -26.347337 -18.228145 41.991250 31.276287 26.567066 -3.988863 0.000000 0.000000 0.000000 -29.926639 -22.108106 51.936709 -2.587057 -0.470396 -30.409431 12.706606 40.171969 31.897807 13.195985 9.705982 -45.742011 0.000000 0.000000 0.000000 -4.157499 -12.164887 -28.993347 -31.388781 42.075083 -16.364151 -74.822779 -8.729851 -4.608229 0.000000 0.000000 0.000000 27.251405 -11.918400 33.804479 36.686222 18.550119 -6.415493 55.121981 37.407355 20.539033 0.000000 0.000000 0.000000 
0.781059 0.880572 0.622019 -178.551897 43.246452 -174.177816 14.602975 -14.530897 -34.536061 -26.884774 -13.874842 20.230670 48.137802 6.130797 48.760567 0.000000 0.000000 0.000000 8.672339 -12.611118 -29.780132 -26.199115 -19.061578 42.286540 31.501568 26.539037 -3.873029 0.000000 0.000000 0.000000 -30.428066 -22.656504 52.493416 -2.521376 -0.426061 -30.140061 13.642118 40.268658 31.956170 12.686559 9.796891 -45.428045 0.000000 0.000000 0.000000 -4.648078 -13.179608 -30.426083 -30.101303 43.213621 -15.679836 -74.539316 -7.856343 -4.568574 0.000000 0.000000 0.000000 26.832891 -11.629084 34.347199 36.477354 18.555961 -6.268718 53.573712 38.287039 20.060177 0.000000 0.000000 0.000000 
0.783358 0.879116 0.631554 -178.851682 41.470480 -174.469711 16.018829 -15.176829 -35.040699 -28.595829 -14.855432 19.281476 47.759555 5.101893 49.798606 0.000000 0.000000 0.000000 8.607781 -12.426781 -29.136525 -24.596833 -19.555692 41.144516 30.229415 24.915209 -6.508231 0.000000 0.000000 0.000000 -30.655584 -23.260788 53.072583 -2.218803 -0.656906 -30.574654 14.275278 40.264587 32.301388 12.647136 9.884624 -46.231961 0.000000 0.000000 0.000000 -4.870455 -14.124288 -31.913567 -28.885886 44.256145 -15.010486 -74.019669 -7.380467 -4.372440 0.000000 0.000000 0.000000 27.092117 -11.832002 35.293702 35.235689 19.797392 -5.937752 52.582075 39.237502 19.497139 0.000000 0.000000 0.000000 
0.785344 0.879208 0.639958 -179.180515 40.437209 -174.832116 16.630696 -15.357582 -35.009870 -28.994534 -15.271295 18.317597 46.978506 4.069911 49.990878 0.000000 0.000000 0.000000 8.680882 -12.303551 -28.830125 -23.738963 -19.741627 40.402257 29.437778 23.739507 -7.640680 0.000000 0.000000 0.000000 -29.876835 -23.333790 52.555093 -2.660102 -0.703924 -30.332193 14.325184 39.564195 31.915515 12.635137 9.863532 -45.862085 0.000000 0.000000 0.000000 -4.993689 -15.283407 -32.702873 -28.848223 45.015993 -15.003029 -73.145187 -6.237507 -4.965402 0.000000 0.000000 0.000000 26.679681 -11.546007 35.709304 34.820393 20.786065 -5.396631 51.336201 39.100959 18.735334 0.000000 0.000000 0.000000 
0.787528 0.881117 0.646885 -179.670129 39.319217 -175.224647 17.057631 -15.513574 -34.908739 -29.427364 -15.797138 17.205717 45.561866 3.081684 50.308100 0.000000 0.000000 0.000000 8.869847 -12.494968 -28.934734 -23.802408 -19.797740 40.124870 28.937105 22.738103 -7.579201 0.000000 0.000000 0.000000 -29.324351 -23.423342 52.231934 -2.521749 -1.035736 -30.983225 14.544706 39.054786 32.459898 13.553845 9.884533 -46.308800 0.000000 0.000000 0.000000 -4.503849 -16.262663 -33.441086 -29.118695 46.188386 -15.476897 -72.588168 -5.289890 -5.621726 0.000000 0.000000 0.000000 27.190901 -12.023094 36.962662 32.950099 22.975284 -4.995326 51.016691 39.537949 18.198920 0.000000 0.000000 0.000000 
0.790646 0.884594 0.652617 -179.882903 38.126599 -175.582059 17.013201 -15.119725 -33.903280 -28.922089 -16.052023 15.578918 43.928246 1.523268 49.425933 0.000000 0.000000 0.000000 8.719092 -12.244010 -28.290636 -22.681763 -20.103839 39.222195 27.939046 20.807345 -7.725038 0.000000 0.000000 0.000000 -28.899388 -23.484001 51.831058 -2.551205 -0.932439 -30.626336 14.163307 38.590406 31.645969 14.578086 9.781027 -45.700587 0.000000 0.000000 0.000000 -4.538181 -16.855691 -34.383021 -28.081991 47.266482 -15.120372 -72.521154 -3.611675 -6.531323 0.000000 0.000000 0.000000 27.647820 -12.043941 38.156487 31.697389 23.831946 -5.062159 50.799345 39.850030 17.594586 0.000000 0.000000 0.000000 
0.794664 0.887970 0.657643 179.887866 36.824092 -175.685211 17.138610 -14.909192 -33.135741 -28.480900 -16.407582 13.813301 42.364180 0.150098 48.801063 0.000000 0.000000 0.000000 8.349754 -11.903371 -27.361292 -20.340862 -20.269343 37.385871 26.634292 18.226760 -8.639928 0.000000 0.000000 0.000000 -27.843881 -23.356774 50.976525 -2.580816 -1.036497 -30.708875 14.223634 37.703253 31.691124 15.211530 9.718533 -44.911319 0.000000 0.000000 0.000000 -4.377732 -17.621588 -36.039223 -26.414191 48.487974 -14.317832 -72.732707 -1.101942 -8.072574 0.000000 0.000000 0.000000 28.256536 -12.678718 39.578951 29.796349 24.723216 -5.206049 50.560759 40.382566 17.088201 0.000000 0.000000 0.000000 
0.799367 0.889318 0.661977 179.708421 35.468163 -175.505437 17.620616 -14.898957 -32.571895 -28.320691 -17.085294 11.757468 41.614939 -1.224277 48.561272 0.000000 0.000000 0.000000 8.274255 -11.926111 -27.094441 -18.961208 -20.536417 36.364909 25.858049 16.666542 -9.393893 0.000000 0.000000 0.000000 -27.276025 -23.219029 50.136558 -1.999490 -0.689817 -30.308118 13.612384 36.973649 31.320623 14.981360 9.603065 -45.188161 0.000000 0.000000 0.000000 -3.708288 -17.679872 -37.227751 -24.349707 49.310607 -13.557744 -74.147397 1.569028 -10.281253 0.000000 0.000000 0.000000 27.466745 -13.064551 40.055222 29.499181 24.951915 -4.851474 51.934913 40.789880 18.083176 0.000000 0.000000 0.000000 
